# xmcd CD database file
#
# Track frame offsets:
#	150
#	18505
#	30787
#	58325
#	75352
#	99222
#	119385
#	132580
#	158202
#	178727
#	196445
#	213487
#
# Disc length: 3270 seconds
#
# Revision: 4
# Processed by: cddbd v1.5.1PL0 Copyright (c) Steve Scherf et al.
# Submitted via: CDex 1.50
#
DISCID=9c0cc40c
DTITLE=YUKI - PRISMIC
DYEAR=2002
DGENRE=Jazz
TTITLE0=Nemuri Hime
TTITLE1=the end of shite
TTITLE2=66db
TTITLE3=Sayonara Dance
TTITLE4=Wakusei ni Nore
TTITLE5=Rainbow st.
TTITLE6=I U Mee Him
TTITLE7=Wasureru Uta
TTITLE8=Aini Ikite
TTITLE9=PRISM
TTITLE10=Furuete Nemure
TTITLE11=Noroi
EXTD=ESCL-2300 2002.03.27 YEAR: 2002
EXTT0=
EXTT1=
EXTT2=
EXTT3=
EXTT4=
EXTT5=
EXTT6=
EXTT7=
EXTT8=
EXTT9=
EXTT10=
EXTT11=
PLAYORDER=
